HIERARCHY
ROOT Hips
{
	OFFSET -211.153198 91.653587 -35.738949
	CHANNELS 6 Xposition Yposition Zposition Zrotation Yrotation Xrotation 
	JOINT LeftUpLeg
	{
		OFFSET 0.103455 1.857827 10.548507
		CHANNELS 3 Xrotation Yrotation Zrotation
		JOINT LeftLeg
		{
			OFFSET 43.500000 -0.000031 0.000008
			CHANNELS 3 Xrotation Yrotation Zrotation
			JOINT LeftFoot
			{
				OFFSET 42.372192 0.000011 -0.000014
				CHANNELS 3 Xrotation Yrotation Zrotation
				JOINT LeftToe
				{
					OFFSET 17.299997 -0.000002 0.000013
					CHANNELS 3 Xrotation Yrotation Zrotation
					End Site
					{
						OFFSET 0.000000 0.000000 0.000000
					}
				}
			}
		}
	}
	JOINT RightUpLeg
	{
		OFFSET 0.103457 1.857826 -10.548499
		CHANNELS 3 Xrotation Yrotation Zrotation
		JOINT RightLeg
		{
			OFFSET 43.500046 -0.000019 0.000015
			CHANNELS 3 Xrotation Yrotation Zrotation
			JOINT RightFoot
			{
				OFFSET 42.372261 -0.000004 0.000013
				CHANNELS 3 Xrotation Yrotation Zrotation
				JOINT RightToe
				{
					OFFSET 17.299992 -0.000006 0.000004
					CHANNELS 3 Xrotation Yrotation Zrotation
					End Site
					{
						OFFSET 0.000000 0.000000 0.000000
					}
				}
			}
		}
	}
	JOINT Spine
	{
		OFFSET 6.901968 -2.603730 -0.000002
		CHANNELS 3 Xrotation Yrotation Zrotation
		JOINT Spine1
		{
			OFFSET 12.588100 -0.000001 0.000009
			CHANNELS 3 Xrotation Yrotation Zrotation
			JOINT Spine2
			{
				OFFSET 12.343201 0.000005 -0.000005
				CHANNELS 3 Xrotation Yrotation Zrotation
				JOINT Neck
				{
					OFFSET 25.832893 -0.000008 -0.000006
					CHANNELS 3 Xrotation Yrotation Zrotation
					JOINT Head
					{
						OFFSET 11.766606 0.000005 0.000008
						CHANNELS 3 Xrotation Yrotation Zrotation
						End Site
						{
							OFFSET 0.000000 0.000000 0.000000
						}
					}
				}
				JOINT LeftShoulder
				{
					OFFSET 19.745903 -1.480373 6.000100
					CHANNELS 3 Xrotation Yrotation Zrotation
					JOINT LeftArm
					{
						OFFSET 11.284123 -0.000007 -0.000024
						CHANNELS 3 Xrotation Yrotation Zrotation
						JOINT LeftForeArm
						{
							OFFSET 33.000053 0.000004 0.000036
							CHANNELS 3 Xrotation Yrotation Zrotation
							JOINT LeftHand
							{
								OFFSET 25.200006 0.000021 -0.000003
								CHANNELS 3 Xrotation Yrotation Zrotation
								End Site
								{
									OFFSET 0.000000 0.000000 0.000000
								}
							}
						}
					}
				}
				JOINT RightShoulder
				{
					OFFSET 19.746101 -1.480381 -6.000079
					CHANNELS 3 Xrotation Yrotation Zrotation
					JOINT RightArm
					{
						OFFSET 11.284133 -0.000015 -0.000008
						CHANNELS 3 Xrotation Yrotation Zrotation
						JOINT RightForeArm
						{
							OFFSET 33.000099 0.000016 0.000006
							CHANNELS 3 Xrotation Yrotation Zrotation
							JOINT RightHand
							{
								OFFSET 25.199781 0.000142 0.000425
								CHANNELS 3 Xrotation Yrotation Zrotation
								End Site
								{
									OFFSET 0.000000 0.000000 0.000000
								}
							}
						}
					}
				}
			}
		}
	}
}
MOTION
Frames: 5
Frame Time: 0.033333
-145.604004 89.608673 73.151688 94.900294 -6.458940 -87.481883 174.055391 -19.350693 173.087649 -51.365061 0.200728 0.874290 73.584435 -3.220273 -8.251625 21.454560 0.003092 0.000019 165.187879 6.514690 -165.005486 -54.742791 2.897030 -4.524322 71.655638 6.789513 10.846296 21.454557 -0.003099 0.000004 8.847892 -1.322278 -1.100920 7.710535 -2.568328 -2.287923 7.392373 -2.582227 -2.272368 -13.232995 7.453843 4.406672 -15.667361 -5.989261 8.724864 -156.723581 -71.763534 -25.322035 -5.757739 45.750858 28.091214 -22.116262 -11.925787 0.929302 17.839332 -6.608251 5.160099 -165.407415 72.460616 16.427005 15.979159 -61.953422 -37.904678 -25.740241 13.750029 -1.074087 20.953723 -20.925799 -49.805388 
-146.699799 89.516457 73.575844 93.961382 -6.275823 -88.134343 170.898273 -16.981390 175.252054 -56.377771 0.242371 0.011473 76.137307 -2.220819 -7.618359 21.454558 0.003115 0.000018 168.663366 4.249697 -168.989207 -51.738939 5.519341 -6.622276 69.718965 7.611572 8.393771 21.454541 -0.003086 -0.000001 8.713824 -1.066913 -1.136241 7.437012 -2.058671 -2.338936 7.118973 -2.072893 -2.326463 -14.276371 8.453770 3.979661 -15.767365 -7.240185 9.114658 -154.023921 -72.263490 -28.085031 -2.171722 45.253589 32.253280 -25.155059 -12.607800 1.017270 14.578702 -3.621750 13.752018 -164.270831 72.209805 17.597035 11.967243 -61.078188 -35.122704 -28.413454 14.338380 -1.157542 19.685635 -18.480977 -48.666980 
-147.812195 88.429024 74.128662 92.877718 -6.010550 -88.994660 167.177063 -14.765102 176.475368 -62.708322 0.303770 -1.413781 78.138450 -0.867805 -6.898730 21.454558 0.003112 0.000014 172.021634 2.171705 -171.896669 -45.842187 5.510403 -3.130401 73.259134 1.872321 -0.691655 21.454548 -0.003078 0.000001 8.643743 -0.815239 -1.013984 7.289513 -1.565077 -2.077360 6.971520 -1.577731 -2.067877 -14.582119 7.771575 3.791834 -16.538501 -7.426407 8.869866 -152.936692 -72.253402 -29.201729 -0.004165 43.830321 36.486853 -28.784586 -13.222863 1.118760 11.063368 -0.544539 15.070413 -162.879576 72.442100 19.025019 7.551286 -59.987434 -32.575016 -31.358949 14.747049 -1.240347 17.263129 -15.319988 -48.102164 
-148.955399 87.334587 74.759079 92.965452 -6.229152 -90.214723 164.298493 -14.107996 176.453142 -68.175246 0.985987 -2.980722 77.681866 0.115881 -7.265117 21.454560 0.003112 0.000014 173.927011 0.546994 -172.637580 -43.008817 3.637667 -0.460916 82.228333 -0.179416 -1.851399 21.454548 -0.003086 -0.000001 8.743990 -0.429234 -0.651955 7.480065 -0.815458 -1.330256 7.162014 -0.823605 -1.325318 -13.998306 7.189945 3.394719 -17.598385 -7.520882 8.384759 -153.364931 -72.622977 -28.752620 0.876487 43.298663 37.726625 -32.115812 -14.355377 1.257225 8.909949 1.602600 11.076580 -162.049517 72.035423 19.883055 1.894053 -58.116871 -30.628470 -33.958290 15.121311 -1.319594 14.440671 -10.549374 -45.258319 
-149.972107 85.805962 75.360802 93.856457 -7.692273 -92.776659 162.922688 -15.029205 176.148229 -73.581006 1.278632 -3.712557 78.564975 0.826011 -6.750629 21.454562 0.003097 0.000017 174.934477 -0.986694 -178.266284 -43.655192 3.897609 1.054468 89.814337 -0.882676 -0.559253 21.454553 -0.003093 0.000001 9.226455 0.104832 -0.011855 8.440039 0.210305 -0.016062 8.121937 0.210058 -0.017321 -12.413713 6.630995 2.897280 -20.200037 -7.901293 8.003947 -154.868775 -72.229681 -27.218092 0.122816 44.106684 33.240608 -34.072580 -15.143971 1.350420 9.455769 2.752941 7.904542 -163.464404 71.076253 18.437015 -6.143350 -54.467009 -27.502149 -34.020291 14.545559 -1.283753 10.926656 -3.996262 -41.779157 
